<svg width="20" height="21" viewBox="0 0 20 21" fill="none" xmlns="http://www.w3.org/2000/svg">
<path d="M12.459 12.849C12.459 12.849 12.7158 12.5922 13.2295 12.0785C13.7432 11.5648 14 10.5853 14 9.14001C14 7.6947 13.4863 6.45837 12.459 5.43103C11.4316 4.40369 10.1953 3.89001 8.75 3.89001C7.30469 3.89001 6.06836 4.40369 5.04102 5.43103C4.01367 6.45837 3.5 7.6947 3.5 9.14001C3.5 10.5853 4.01367 11.8217 5.04102 12.849C6.06836 13.8763 7.30469 14.39 8.75 14.39C10.1953 14.39 11.4316 13.8763 12.459 12.849ZM20 18.89C20 19.2963 19.8516 19.6478 19.5547 19.9447C19.2578 20.2416 18.9062 20.39 18.5 20.39C18.0781 20.39 17.7266 20.2416 17.4453 19.9447L13.4258 15.9369C12.0273 16.9056 10.4688 17.39 8.75 17.39C7.63281 17.39 6.56445 17.1732 5.54492 16.7396C4.52539 16.306 3.64648 15.7201 2.9082 14.9818C2.16992 14.2435 1.58398 13.3646 1.15039 12.3451C0.716797 11.3256 0.5 10.2572 0.5 9.14001C0.5 8.02283 0.716797 6.95447 1.15039 5.93494C1.58398 4.91541 2.16992 4.0365 2.9082 3.29822C3.64648 2.55994 4.52539 1.974 5.54492 1.54041C6.56445 1.10681 7.63281 0.890015 8.75 0.890015C9.86719 0.890015 10.9355 1.10681 11.9551 1.54041C12.9746 1.974 13.8535 2.55994 14.5918 3.29822C15.3301 4.0365 15.916 4.91541 16.3496 5.93494C16.7832 6.95447 17 8.02283 17 9.14001C17 10.8588 16.5156 12.4174 15.5469 13.8158L19.5664 17.8353C19.8555 18.1244 20 18.476 20 18.89Z" fill="white"/>
</svg>
