<svg xmlns="http://www.w3.org/2000/svg" viewBox="0 0 518.32 519.42"><defs><style>.cls-1{fill:#010101;}</style></defs><g id="Слой_2" data-name="Слой 2"><g id="Слой_1-2" data-name="Слой 1"><path class="cls-1" d="M48.42,1.8C26.49,7.59,9.64,23.73,1.93,46.47.1,51.74,0,56.62,0,136.31v84.25L2.74,228a88.58,88.58,0,0,0,6.09,13.2c2.44,4.36,35.33,37.86,129.74,132.47C208.1,443.38,267.69,502.57,271,505.2a63.76,63.76,0,0,0,74.82,4c4.56-2.84,28.93-26.59,83.64-81.31,70.66-70.75,77.56-78,80.91-84.46,10.35-20.3,10.56-42.43.51-61.92-2.74-5.28-21.83-24.77-135.22-138.16C235,2.51,241.4,8.5,225.56,2.61L219.27.28,137.55.07C59.69-.13,55.53,0,48.42,1.8ZM214.29,44c4.57,1.52,15.23,11.88,131.16,127.7C431.33,257.51,472.24,299,473.56,301.87c2.44,5,2.64,13.2.51,18.48C473,323,450,346.54,398.64,398.11c-77.05,77.25-78.77,78.77-87.1,78.77-9.23,0-4.26,4.67-138.26-129.22C99.79,274.26,46.19,219.85,44.87,217.52c-2.23-4.06-2.23-4.17-2.54-78.58-.3-83.13-.4-81.81,6.5-89.43,6.49-7.21,3.55-6.9,86.28-7C200.89,42.41,209.83,42.61,214.29,44Z"/><path class="cls-1" d="M115.73,87.78c-12.69,4.57-22.44,13.6-26.91,24.87-2.13,5.28-2.53,8.12-2.53,16.55,0,9.34.3,10.76,3.24,17A42.4,42.4,0,0,0,110,167.06c7.41,3.66,7.92,3.76,18.88,3.76s11.27-.1,18.48-4a44.15,44.15,0,0,0,19.89-20.71c3.05-6.29,3.25-7.61,3.25-17.46s-.2-11.16-3.25-17.46a42.35,42.35,0,0,0-20.4-20.81c-6.7-3.35-8.53-3.86-16.85-4.06C123.14,86.06,119.58,86.46,115.73,87.78Z"/></g></g></svg>