<svg width="142" height="32" viewBox="0 0 142 32" fill="none" xmlns="http://www.w3.org/2000/svg">
<g clip-path="url(#clip0_1153_664)">
<path d="M0.0507812 5.1907H3.21395V6.63924C3.75493 6.04415 4.35603 5.60003 5.01706 5.3071C5.67808 5.01331 6.39902 4.86663 7.17967 4.86663C7.96762 4.86663 8.67911 5.05991 9.31329 5.44583C9.94704 5.83218 10.4573 6.39592 10.8439 7.13748C11.3462 6.39592 11.9625 5.83218 12.6934 5.44583C13.4235 5.05991 14.2218 4.86663 15.0877 4.86663C15.9841 4.86663 16.7727 5.07495 17.453 5.49244C18.1334 5.90907 18.6222 6.45391 18.9201 7.12567C19.2177 7.79808 19.3665 8.89119 19.3665 10.4048V17.7974H16.1797V11.4015C16.1797 9.97271 16.0021 9.00502 15.6471 8.49926C15.2917 7.99286 14.7587 7.74031 14.0481 7.74031C13.5073 7.74031 13.0226 7.89472 12.5937 8.20354C12.1648 8.51258 11.8464 8.93973 11.6376 9.48435C11.4293 10.0288 11.3247 10.9033 11.3247 12.1081V17.7974H8.13835V11.6914C8.13835 10.5635 8.05502 9.74679 7.8888 9.2406C7.72215 8.73485 7.47238 8.35816 7.13951 8.11098C6.80685 7.86358 6.40396 7.74009 5.9315 7.74009C5.40512 7.74009 4.92707 7.89622 4.49713 8.20912C4.0674 8.52224 3.74612 8.96035 3.5333 9.52451C3.32068 10.0885 3.21395 10.9767 3.21395 12.1892V17.7972H0.0507812V5.1907Z" fill="#292B6A"/>
<path d="M31.6846 5.19071H34.8475V17.7974H31.6846V16.4651C31.0674 17.0524 30.4478 17.4749 29.8269 17.7341C29.2056 17.9924 28.5326 18.1221 27.8073 18.1221C26.1795 18.1221 24.7711 17.491 23.5831 16.2271C22.3946 14.9648 21.8008 13.3947 21.8008 11.5175C21.8008 9.57113 22.3757 7.97612 23.5253 6.73224C24.6749 5.48836 26.0712 4.86664 27.7148 4.86664C28.4709 4.86664 29.1807 5.00924 29.8443 5.29551C30.5079 5.58071 31.1215 6.00958 31.6848 6.58127V5.19071H31.6846ZM28.3593 7.78649C27.3815 7.78649 26.5695 8.13225 25.9226 8.82334C25.276 9.51507 24.9526 10.4012 24.9526 11.4829C24.9526 12.5719 25.2816 13.4679 25.9398 14.1712C26.598 14.8739 27.4083 15.2255 28.3709 15.2255C29.3643 15.2255 30.1877 14.8795 30.8421 14.1888C31.4965 13.4969 31.824 12.5917 31.824 11.4715C31.824 10.3747 31.4965 9.48608 30.8421 8.80637C30.1877 8.12645 29.36 7.78649 28.3593 7.78649Z" fill="#292B6A"/>
<path d="M37.6953 0.324493H40.8585V17.7974H37.6953V0.324493Z" fill="#292B6A"/>
<path d="M53.0364 5.19071H56.1993V17.7974H53.0364V16.4651C52.4185 17.0524 51.7991 17.4749 51.1787 17.7341C50.5574 17.9924 49.8844 18.1221 49.1587 18.1221C47.531 18.1221 46.1231 17.491 44.9348 16.2271C43.7466 14.9648 43.1523 13.3947 43.1523 11.5175C43.1523 9.57113 43.7275 7.97612 44.8768 6.73224C46.0267 5.48836 47.4228 4.86664 49.0663 4.86664C49.8225 4.86664 50.5323 5.00924 51.1955 5.29551C51.8591 5.58071 52.4726 6.00958 53.0364 6.58127V5.19071ZM49.7106 7.78649C48.7328 7.78649 47.9208 8.13225 47.274 8.82334C46.6269 9.51507 46.3039 10.4012 46.3039 11.4829C46.3039 12.5719 46.6325 13.4679 47.2912 14.1712C47.9494 14.8739 48.7597 15.2255 49.7222 15.2255C50.715 15.2255 51.5389 14.8795 52.1934 14.1888C52.8476 13.4969 53.1749 12.5917 53.1749 11.4715C53.1749 10.3747 52.8476 9.48608 52.1934 8.80637C51.5389 8.12645 50.7118 7.78649 49.7106 7.78649Z" fill="#292B6A"/>
<path d="M58 5.1907H61.2328L64.5074 13.1009L68.1205 5.1907H71.3622L63.4669 22.4096H60.2L62.7923 16.8572L58 5.1907Z" fill="#292B6A"/>
<path d="M80.8811 6.95214L78.923 8.91009C78.1273 8.12257 77.4048 7.72849 76.7561 7.72849C76.4011 7.72849 76.1227 7.80387 75.9221 7.95463C75.7207 8.10475 75.6206 8.29266 75.6206 8.51665C75.6206 8.68653 75.6842 8.84309 75.8122 8.98569C75.9391 9.12828 76.254 9.32371 76.7563 9.57112L77.9151 10.1503C79.1358 10.7529 79.9738 11.3667 80.4295 11.9923C80.8854 12.6181 81.1135 13.3521 81.1135 14.1942C81.1135 15.3144 80.7018 16.2486 79.8791 16.9983C79.0565 17.7474 77.9535 18.1221 76.5714 18.1221C74.7326 18.1221 73.265 17.404 72.168 15.967L74.1145 13.8465C74.4854 14.279 74.9199 14.6289 75.4183 14.895C75.9163 15.1617 76.3585 15.2951 76.7449 15.2951C77.1617 15.2951 77.4983 15.1943 77.753 14.9935C78.0077 14.7927 78.1352 14.561 78.1352 14.2986C78.1352 13.8122 77.6754 13.3367 76.7563 12.8732L75.6902 12.3402C73.6513 11.3128 72.6312 10.027 72.6312 8.48186C72.6312 7.48539 73.0154 6.63366 73.7842 5.9271C74.5531 5.21969 75.5354 4.86684 76.7329 4.86684C77.5515 4.86684 78.3219 5.04638 79.0447 5.40546C79.767 5.76475 80.379 6.28017 80.8811 6.95214Z" fill="#292B6A"/>
<path d="M84.8376 0C85.3921 0 85.8682 0.200799 86.2649 0.602611C86.6613 1.00421 86.86 1.49085 86.86 2.06253C86.86 2.62627 86.6633 3.1069 86.2707 3.50485C85.8779 3.90301 85.408 4.10145 84.8614 4.10145C84.2996 4.10145 83.8192 3.89936 83.423 3.49325C83.0263 3.08757 82.8281 2.59556 82.8281 2.0155C82.8281 1.46014 83.0242 0.98445 83.4174 0.591014C83.8098 0.196933 84.2833 0 84.8376 0ZM83.2563 5.1907H86.4195V17.7974H83.2563V5.1907Z" fill="#292B6A"/>
<path d="M98.5986 5.19071H101.762V17.7974H98.5986V16.4651C97.981 17.0524 97.3621 17.4749 96.7412 17.7341C96.1199 17.9924 95.4469 18.1221 94.7218 18.1221C93.0938 18.1221 91.6854 17.491 90.4973 16.2271C89.3087 14.9648 88.7148 13.3947 88.7148 11.5175C88.7148 9.57113 89.29 7.97612 90.4396 6.73224C91.5892 5.48836 92.9853 4.86664 94.6293 4.86664C95.3852 4.86664 96.0948 5.00924 96.7584 5.29551C97.422 5.58071 98.0351 6.00958 98.5986 6.58127V5.19071ZM95.2736 7.78649C94.2953 7.78649 93.4833 8.13225 92.8365 8.82334C92.1898 9.51507 91.8662 10.4012 91.8662 11.4829C91.8662 12.5719 92.1948 13.4679 92.8534 14.1712C93.5121 14.8739 94.322 15.2255 95.2843 15.2255C96.2775 15.2255 97.1014 14.8795 97.7555 14.1888C98.4101 13.4969 98.7374 12.5917 98.7374 11.4715C98.7374 10.3747 98.4101 9.48608 97.7555 8.80637C97.1016 8.12645 96.2739 7.78649 95.2736 7.78649Z" fill="#292B6A"/>
<path d="M104.98 0.324493H108.144V10.388L112.802 5.19069H116.774L111.344 11.2331L117.424 17.7974H113.498L108.144 11.9876V17.7974H104.981L104.98 0.324493Z" fill="#F06625"/>
<path d="M119.96 0C120.514 0 120.99 0.200799 121.386 0.602611C121.784 1.00421 121.981 1.49085 121.981 2.06253C121.981 2.62627 121.785 3.1069 121.392 3.50485C120.999 3.90301 120.529 4.10145 119.983 4.10145C119.42 4.10145 118.941 3.89936 118.544 3.49325C118.147 3.08757 117.949 2.59556 117.949 2.0155C117.949 1.46014 118.146 0.98445 118.538 0.591014C118.932 0.196933 119.405 0 119.96 0ZM118.378 5.1907H121.541V17.7974H118.378V5.1907Z" fill="#F06625"/>
<path d="M124.414 5.19071H127.577V6.48333C128.294 5.87815 128.944 5.45787 129.526 5.22163C130.109 4.98497 130.704 4.86685 131.314 4.86685C132.563 4.86685 133.624 5.30324 134.496 6.17602C135.229 6.91757 135.595 8.01477 135.595 9.46697V17.7976H132.466V12.2769C132.466 10.7725 132.399 9.77343 132.264 9.27948C132.129 8.78511 131.894 8.4095 131.559 8.15136C131.224 7.89301 130.81 7.76286 130.316 7.76286C129.677 7.76286 129.128 7.9774 128.669 8.40542C128.211 8.83407 127.893 9.42595 127.716 10.1823C127.623 10.5758 127.577 11.4283 127.577 12.7392V17.7972H124.414V5.19071Z" fill="#F06625"/>
<path d="M139.889 0C140.444 0 140.919 0.200799 141.317 0.602611C141.713 1.00421 141.911 1.49085 141.911 2.06253C141.911 2.62627 141.715 3.1069 141.322 3.50485C140.929 3.90301 140.459 4.10145 139.913 4.10145C139.351 4.10145 138.87 3.89936 138.474 3.49325C138.078 3.08757 137.879 2.59556 137.879 2.0155C137.879 1.46014 138.076 0.98445 138.468 0.591014C138.861 0.196933 139.334 0 139.889 0ZM138.308 5.1907H141.471V17.7974H138.307L138.308 5.1907Z" fill="#F06625"/>
<path d="M0.195312 26.1453H1.62753V26.7309C1.95225 26.4571 2.24647 26.2666 2.51019 26.1594C2.77391 26.0525 3.04365 25.999 3.31961 25.999C3.88528 25.999 4.36548 26.1964 4.76021 26.5922C5.09179 26.9276 5.25759 27.4244 5.25759 28.0817V31.8533H3.84104V29.3537C3.84104 28.6723 3.81055 28.2205 3.74977 27.9965C3.68856 27.7733 3.58204 27.6033 3.43043 27.4858C3.27838 27.3692 3.09132 27.3105 2.86776 27.3105C2.57827 27.3105 2.32958 27.4076 2.12212 27.6009C1.91445 27.795 1.77056 28.0633 1.69046 28.4056C1.64836 28.5836 1.62753 28.9702 1.62753 29.5638V31.8535H0.195312V26.1453Z" fill="#231F20"/>
<path d="M12.3605 29.4134H7.76019C7.82655 29.8193 8.00415 30.1423 8.29257 30.3818C8.58099 30.621 8.94909 30.7409 9.39686 30.7409C9.93203 30.7409 10.392 30.554 10.7765 30.1801L11.9832 30.7467C11.6825 31.1736 11.3219 31.4889 10.9025 31.6933C10.4827 31.8978 9.98444 32.0002 9.40717 32.0002C8.51206 32.0002 7.78295 31.718 7.21964 31.153C6.65655 30.5884 6.375 29.881 6.375 29.031C6.375 28.1601 6.65569 27.4375 7.21707 26.8621C7.77823 26.2866 8.4822 25.999 9.32857 25.999C10.2275 25.999 10.9584 26.2866 11.5215 26.8621C12.0843 27.4375 12.3661 28.1971 12.3661 29.1413L12.3605 29.4134ZM10.9285 28.2858C10.8342 27.9679 10.6472 27.7089 10.3686 27.5098C10.0903 27.3103 9.76732 27.2105 9.39944 27.2105C8.99999 27.2105 8.6495 27.3223 8.34841 27.5461C8.15921 27.6857 7.98397 27.9327 7.82268 28.2855H10.9285V28.2858Z" fill="#231F20"/>
<path d="M12.8867 26.1453H14.2887L15.4363 29.3928L16.6712 26.1453H17.5285L18.7412 29.3559L19.8904 26.1453H21.3011L19.2186 31.8531H18.3111L17.094 28.6006L15.8405 31.8531H14.9432L12.8867 26.1453Z" fill="#231F20"/>
<path d="M25.6085 26.9431L24.7222 27.8303C24.3621 27.4733 24.035 27.2942 23.7414 27.2942C23.5803 27.2942 23.4545 27.3288 23.3637 27.3971C23.2728 27.465 23.2273 27.5502 23.2273 27.6516C23.2273 27.7283 23.2561 27.7993 23.3138 27.864C23.3716 27.9286 23.5142 28.0167 23.7416 28.1286L24.2659 28.391C24.8184 28.6642 25.1979 28.9423 25.4045 29.2251C25.6107 29.5084 25.714 29.8402 25.714 30.2225C25.714 30.7291 25.5278 31.1526 25.1552 31.4915C24.783 31.8312 24.2835 32.0002 23.6574 32.0002C22.825 32.0002 22.1606 31.6751 21.6641 31.025L22.5454 30.0642C22.7132 30.2602 22.9101 30.4183 23.1356 30.5392C23.3611 30.6597 23.5612 30.7203 23.736 30.7203C23.9248 30.7203 24.0771 30.6752 24.1926 30.5841C24.3079 30.493 24.3657 30.388 24.3657 30.2691C24.3657 30.0489 24.1578 29.8333 23.7416 29.6239L23.2589 29.3825C22.3356 28.9174 21.8739 28.3349 21.8739 27.6353C21.8739 27.1841 22.0478 26.7988 22.396 26.479C22.7439 26.1584 23.1888 25.999 23.7309 25.999C24.1016 25.999 24.4505 26.0802 24.7776 26.2428C25.1041 26.4053 25.3811 26.6386 25.6085 26.9431Z" fill="#231F20"/>
<path d="M34.0567 26.1453H35.4887V31.8531H34.0567V31.2499C33.7769 31.5153 33.4969 31.7075 33.2155 31.8245C32.9346 31.9412 32.6294 31.9998 32.3013 31.9998C31.564 31.9998 30.9266 31.7142 30.3887 31.142C29.8509 30.5708 29.582 29.8595 29.582 29.0099C29.582 28.1284 29.8421 27.4059 30.3625 26.8432C30.8835 26.2801 31.5155 25.9986 32.259 25.9986C32.6017 25.9986 32.923 26.0628 33.2237 26.1923C33.5235 26.3216 33.8016 26.5162 34.0567 26.7747V26.1453ZM32.5511 27.3206C32.1087 27.3206 31.741 27.4774 31.4476 27.7901C31.1551 28.1034 31.0087 28.5044 31.0087 28.9938C31.0087 29.4876 31.1577 29.8932 31.4558 30.2113C31.7539 30.5298 32.1209 30.6887 32.5562 30.6887C33.0061 30.6887 33.3792 30.5321 33.6755 30.219C33.9717 29.9061 34.1197 29.4959 34.1197 28.9887C34.1197 28.4922 33.9717 28.0901 33.6755 27.7824C33.3792 27.4746 33.0044 27.3206 32.5511 27.3206Z" fill="#231F20"/>
<path d="M36.9377 26.1453H38.3701V26.7309C38.6949 26.4571 38.9889 26.2666 39.2524 26.1594C39.5163 26.0525 39.7856 25.999 40.0618 25.999C40.6277 25.999 41.1079 26.1964 41.5024 26.5922C41.8344 26.9276 42.0002 27.4244 42.0002 28.0817V31.8533H40.5834V29.3538C40.5834 28.6723 40.5532 28.2205 40.4915 27.9965C40.4308 27.7734 40.3247 27.6033 40.1726 27.4858C40.021 27.3692 39.8335 27.3106 39.6102 27.3106C39.3207 27.3106 39.0722 27.4076 38.8645 27.6009C38.6568 27.795 38.5127 28.0633 38.4324 28.4056C38.391 28.5836 38.3699 28.9702 38.3699 29.5638V31.8535H36.9375L36.9377 26.1453Z" fill="#231F20"/>
<path d="M47.5999 23.9423H49.0319V31.8531H47.5999V31.2498C47.3205 31.5153 47.04 31.7075 46.7589 31.8245C46.478 31.9411 46.1728 31.9998 45.8447 31.9998C45.1074 31.9998 44.4696 31.7141 43.9318 31.142C43.3941 30.5708 43.125 29.8595 43.125 29.0099C43.125 28.1283 43.3855 27.4059 43.9059 26.8432C44.4264 26.2801 45.0587 25.9986 45.8026 25.9986C46.1451 25.9986 46.4662 26.0628 46.7666 26.1923C47.0671 26.3216 47.3448 26.5161 47.5999 26.7747V23.9423ZM46.0945 27.3206C45.6518 27.3206 45.2842 27.4774 44.991 27.7901C44.6983 28.1034 44.5521 28.5044 44.5521 28.9938C44.5521 29.4875 44.7005 29.8932 44.9992 30.2113C45.2971 30.5297 45.6641 30.6887 46.0994 30.6887C46.5491 30.6887 46.9219 30.5321 47.2185 30.219C47.5147 29.9061 47.6626 29.4959 47.6626 28.9886C47.6626 28.4921 47.5147 28.0901 47.2185 27.7823C46.9221 27.4746 46.5476 27.3206 46.0945 27.3206Z" fill="#231F20"/>
<path d="M52.8711 26.1453H54.3304L55.7725 29.5131L57.2111 26.1453H58.6629L56.2342 31.8531H55.3052L52.8711 26.1453Z" fill="#231F20"/>
<path d="M60.0584 23.7952C60.3098 23.7952 60.525 23.8867 60.705 24.0681C60.8845 24.2496 60.9741 24.4704 60.9741 24.7289C60.9741 24.9841 60.8852 25.2023 60.7074 25.3822C60.5298 25.5622 60.3169 25.6524 60.0691 25.6524C59.8146 25.6524 59.5973 25.5605 59.4177 25.3773C59.2384 25.1932 59.1484 24.9701 59.1484 24.7085C59.1484 24.4564 59.2373 24.2414 59.4152 24.063C59.593 23.8849 59.8075 23.7952 60.0584 23.7952ZM59.3424 26.1453H60.7746V31.8531H59.3424V26.1453Z" fill="#231F20"/>
<path d="M67.7941 29.4135H63.1936C63.2601 29.8194 63.4373 30.1423 63.7259 30.3818C64.0146 30.621 64.3829 30.7409 64.8304 30.7409C65.3656 30.7409 65.8254 30.554 66.2103 30.1801L67.4166 30.7467C67.1161 31.1736 66.7558 31.4889 66.3359 31.6933C65.9165 31.8978 65.4182 32.0002 64.841 32.0002C63.9459 32.0002 63.217 31.718 62.6534 31.153C62.0901 30.5884 61.8086 29.881 61.8086 29.031C61.8086 28.1601 62.0895 27.4375 62.6504 26.8621C63.212 26.2866 63.9156 25.999 64.7622 25.999C65.6611 25.999 66.3917 26.2866 66.9548 26.8621C67.5179 27.4375 67.7993 28.1971 67.7993 29.1414L67.7941 29.4135ZM66.3621 28.2858C66.2674 27.9679 66.0808 27.7089 65.8027 27.5098C65.5237 27.3103 65.2009 27.2105 64.8328 27.2105C64.4334 27.2105 64.0833 27.3224 63.782 27.5461C63.5928 27.6857 63.418 27.9327 63.2567 28.2856H66.3621V28.2858Z" fill="#231F20"/>
<path d="M68.3242 26.1453H69.7257L70.8738 29.3928L72.1085 26.1453H72.966L74.1787 29.3559L75.3277 26.1453H76.7389L74.6555 31.8531H73.7481L72.5313 28.6006L71.2771 31.8531H70.3803L68.3242 26.1453Z" fill="#231F20"/>
<path d="M81.0436 26.9431L80.1567 27.8303C79.7961 27.4733 79.4692 27.2942 79.1759 27.2942C79.015 27.2942 78.8887 27.3288 78.7981 27.3971C78.7068 27.465 78.6617 27.5502 78.6617 27.6516C78.6617 27.7283 78.6905 27.7993 78.7479 27.864C78.8052 27.9286 78.9478 28.0167 79.1757 28.1286L79.7001 28.391C80.2522 28.6642 80.6317 28.9423 80.8383 29.2251C81.0447 29.5084 81.1478 29.8402 81.1478 30.2225C81.1478 30.7291 80.9616 31.1526 80.5888 31.4915C80.2162 31.8312 79.7171 32.0002 79.091 32.0002C78.2586 32.0002 77.5944 31.6751 77.0977 31.025L77.979 30.0642C78.147 30.2602 78.3432 30.4183 78.5692 30.5392C78.7947 30.6597 78.9946 30.7203 79.1696 30.7203C79.3584 30.7203 79.5109 30.6752 79.6262 30.5841C79.7418 30.493 79.7993 30.388 79.7993 30.2691C79.7993 30.0489 79.591 29.8333 79.1754 29.6239L78.6924 29.3825C77.7692 28.9174 77.3079 28.3349 77.3079 27.6353C77.3079 27.1841 77.4812 26.7988 77.8298 26.479C78.1779 26.1584 78.6231 25.999 79.1645 25.999C79.5356 25.999 79.8846 26.0802 80.2114 26.2428C80.5383 26.4053 80.8155 26.6386 81.0436 26.9431Z" fill="#231F20"/>
<path d="M85.4532 24.0417H86.8852V26.1453H87.7355V27.3782H86.8852V31.8531H85.4532V27.3782H84.7188V26.1453H85.4532V24.0417Z" fill="#231F20"/>
<path d="M88.5078 23.9423H89.9293V26.7223C90.2087 26.4811 90.4902 26.2999 90.7739 26.1798C91.057 26.0589 91.3441 25.9988 91.6343 25.9988C92.201 25.9988 92.6782 26.1942 93.0665 26.5861C93.3987 26.9252 93.5645 27.4239 93.5645 28.0813V31.8529H92.1533V29.3509C92.1533 28.6897 92.1222 28.2421 92.0593 28.0078C91.9968 27.7733 91.8894 27.5985 91.7363 27.483C91.5844 27.3676 91.3963 27.3101 91.1727 27.3101C90.8822 27.3101 90.6333 27.4059 90.4252 27.5985C90.2171 27.7907 90.073 28.0532 89.9922 28.3854C89.9506 28.5572 89.9295 28.9483 89.9295 29.5608V31.8531H88.508V23.9423H88.5078Z" fill="#231F20"/>
<path d="M99.162 26.1453H100.595V31.8531H99.162V31.2499C98.8828 31.5153 98.6028 31.7075 98.3212 31.8245C98.0401 31.9412 97.7351 31.9998 97.4068 31.9998C96.6697 31.9998 96.0321 31.7142 95.4941 31.142C94.9564 30.5708 94.6875 29.8595 94.6875 29.0099C94.6875 28.1284 94.9476 27.4059 95.4684 26.8432C95.9885 26.2801 96.621 25.9986 97.3651 25.9986C97.707 25.9986 98.0283 26.0628 98.3289 26.1923C98.629 26.3216 98.9068 26.5162 99.162 26.7747V26.1453ZM97.6565 27.3206C97.2141 27.3206 96.8462 27.4774 96.5535 27.7901C96.2604 28.1034 96.1141 28.5044 96.1141 28.9938C96.1141 29.4876 96.2627 29.8932 96.5608 30.2113C96.8593 30.5298 97.2259 30.6887 97.6617 30.6887C98.1116 30.6887 98.4842 30.5321 98.7804 30.219C99.0765 29.9061 99.2249 29.4959 99.2249 28.9887C99.2249 28.4922 99.0765 28.0901 98.7804 27.7824C98.4842 27.4746 98.1095 27.3206 97.6565 27.3206Z" fill="#231F20"/>
<path d="M102.214 24.0417H103.647V26.1453H104.497V27.3782H103.647V31.8531H102.214V27.3782H101.48V26.1453H102.214V24.0417Z" fill="#231F20"/>
<path d="M108.258 26.1453H109.69V26.8018C109.935 26.5321 110.207 26.3308 110.506 26.1981C110.805 26.0656 111.132 25.9988 111.486 25.9988C111.843 25.9988 112.164 26.086 112.451 26.261C112.739 26.4358 112.969 26.6914 113.144 27.0266C113.372 26.6912 113.651 26.4358 113.982 26.261C114.312 26.0862 114.674 25.9988 115.066 25.9988C115.472 25.9988 115.829 26.0931 116.137 26.2819C116.445 26.4704 116.666 26.7172 116.801 27.0213C116.936 27.3256 117.003 27.8208 117.003 28.5061V31.8529H115.56V28.9571C115.56 28.3105 115.479 27.8719 115.319 27.6434C115.158 27.4141 114.917 27.2998 114.595 27.2998C114.35 27.2998 114.131 27.3694 113.937 27.5096C113.743 27.6492 113.598 27.8429 113.504 28.0891C113.409 28.3362 113.363 28.732 113.363 29.2775V31.8529H111.919V29.0885C111.919 28.5778 111.882 28.2074 111.807 27.9785C111.731 27.7499 111.618 27.5788 111.467 27.4671C111.317 27.3552 111.134 27.2998 110.921 27.2998C110.682 27.2998 110.466 27.3703 110.271 27.5116C110.077 27.6533 109.931 27.852 109.835 28.1075C109.739 28.3627 109.69 28.7649 109.69 29.3142V31.8527H108.258L108.258 26.1453Z" fill="#231F20"/>
<path d="M122.58 26.1453H124.013V31.8531H122.58V31.2499C122.301 31.5153 122.02 31.7075 121.739 31.8245C121.458 31.9412 121.153 31.9998 120.826 31.9998C120.088 31.9998 119.45 31.7142 118.912 31.142C118.375 30.5708 118.105 29.8595 118.105 29.0099C118.105 28.1284 118.366 27.4059 118.887 26.8432C119.407 26.2801 120.039 25.9986 120.783 25.9986C121.125 25.9986 121.446 26.0628 121.747 26.1923C122.047 26.3216 122.325 26.5162 122.58 26.7747V26.1453ZM121.075 27.3206C120.632 27.3206 120.264 27.4774 119.971 27.7901C119.679 28.1034 119.532 28.5044 119.532 28.9938C119.532 29.4876 119.681 29.8932 119.979 30.2113C120.278 30.5298 120.644 30.6887 121.08 30.6887C121.529 30.6887 121.902 30.5321 122.199 30.219C122.494 29.9061 122.643 29.4959 122.643 28.9887C122.643 28.4922 122.494 28.0901 122.199 27.7824C121.902 27.4746 121.528 27.3206 121.075 27.3206Z" fill="#231F20"/>
<path d="M125.633 24.0417H127.065V26.1453H127.915V27.3782H127.065V31.8531H125.633V27.3782H124.898V26.1453H125.633V24.0417Z" fill="#231F20"/>
<path d="M128.852 24.0417H130.284V26.1453H131.134V27.3782H130.284V31.8531H128.852V27.3782H128.117V26.1453H128.852V24.0417Z" fill="#231F20"/>
<path d="M137.619 29.4135H133.018C133.084 29.8194 133.261 30.1423 133.55 30.3818C133.839 30.621 134.207 30.7409 134.655 30.7409C135.19 30.7409 135.65 30.554 136.034 30.1801L137.241 30.7467C136.94 31.1736 136.58 31.4889 136.16 31.6933C135.741 31.8978 135.242 32.0002 134.665 32.0002C133.77 32.0002 133.041 31.718 132.477 31.153C131.914 30.5884 131.633 29.881 131.633 29.031C131.633 28.1601 131.914 27.4375 132.475 26.8621C133.036 26.2866 133.74 25.999 134.587 25.999C135.485 25.999 136.216 26.2866 136.779 26.8621C137.342 27.4375 137.624 28.1971 137.624 29.1414L137.619 29.4135ZM136.187 28.2858C136.092 27.9679 135.905 27.7089 135.627 27.5098C135.348 27.3103 135.025 27.2105 134.657 27.2105C134.258 27.2105 133.907 27.3224 133.606 27.5461C133.417 27.6857 133.242 27.9327 133.081 28.2856H136.187V28.2858Z" fill="#231F20"/>
<path d="M138.441 26.1453H139.669V26.8647C139.801 26.5812 139.978 26.366 140.199 26.2189C140.42 26.0725 140.661 25.999 140.923 25.999C141.108 25.999 141.302 26.0478 141.505 26.1455L141.059 27.3784C140.891 27.2942 140.753 27.2524 140.645 27.2524C140.425 27.2524 140.238 27.3896 140.086 27.6621C139.934 27.9346 139.858 28.4692 139.858 29.267L139.863 29.5451V31.8533H138.441V26.1453Z" fill="#231F20"/>
</g>
<defs>
<clipPath id="clip0_1153_664">
<rect width="141.859" height="32" fill="white" transform="translate(0.0507812)"/>
</clipPath>
</defs>
</svg>
