<svg xmlns="http://www.w3.org/2000/svg" viewBox="0 0 519.16 316.29"><defs><style>.cls-1{fill:#ec6628;}.cls-2{fill:#282e69;stroke:#fff;stroke-miterlimit:10;stroke-width:10px;}</style></defs><g id="Слой_2" data-name="Слой 2"><g id="Слой_1-2" data-name="Слой 1"><path class="cls-1" d="M296.75,0H353.3V179.86L436.55,87h71L410.49,195,519.16,312.28H449L353.3,208.45V312.28H296.77Z"/><path class="cls-2" d="M5,86H61.53v25.89A96.44,96.44,0,0,1,93.76,88.05a94.09,94.09,0,0,1,38.65-7.87,71.88,71.88,0,0,1,38.13,10.35q17,10.36,27.36,30.24,13.47-19.89,33-30.24a90.16,90.16,0,0,1,42.8-10.35q24,0,42.27,11.19t26.22,29.19q8,18,8,58.6V311.29h-57V197q0-38.29-9.52-51.87t-28.57-13.56a43.4,43.4,0,0,0-26,8.28q-11.49,8.28-17.09,22.89t-5.59,46.89V311.29h-57V202.16q0-30.24-4.46-43.81t-13.39-20.19q-8.91-6.63-21.59-6.62a42.54,42.54,0,0,0-25.63,8.38Q73,148.32,67.24,163.43t-5.71,47.62V311.28H5Z"/></g></g></svg>